<svg xmlns:dc="http://purl.org/dc/elements/1.1/" xmlns:cc="http://creativecommons.org/ns#" xmlns:rdf="http://www.w3.org/1999/02/22-rdf-syntax-ns#" xmlns:svg="http://www.w3.org/2000/svg" xmlns="http://www.w3.org/2000/svg" xmlns:sodipodi="http://sodipodi.sourceforge.net/DTD/sodipodi-0.dtd" xmlns:inkscape="http://www.inkscape.org/namespaces/inkscape" version="1.1" x="0px" y="0px" viewBox="0 0 100 100"><g transform="translate(0,-952.36218)"><path style="text-indent:0;text-transform:none;direction:ltr;block-progression:tb;baseline-shift:baseline;color:#000000;enable-background:accumulate;" d="m 8.6849619,979.58281 c -2.7375292,0 -4.96875,2.23108 -4.96875,4.96875 l 0,34.65624 c 0,2.7376 2.2311905,4.9687 4.96875,4.9687 l 83.5312501,0 c 2.737711,0 4.96875,-2.2312 4.96875,-4.9687 l 0,-34.65624 c 0,-2.73761 -2.231069,-4.96875 -4.96875,-4.96875 l -83.5312501,0 z m 0,2 83.5312501,0 c 1.669719,0 2.96875,1.29916 2.96875,2.96875 l 0,34.65624 c 0,1.6695 -1.299061,2.9687 -2.96875,2.9687 l -83.5312501,0 c -1.6694405,0 -2.96875,-1.2993 -2.96875,-2.9687 l 0,-34.65624 c 0,-1.66953 1.2992792,-2.96875 2.96875,-2.96875 z m 62.0000001,7.125 0,0.0625 -41.03125,0 c -2.116273,0 -3.704711,0.90443 -4.625,2.3125 -0.920289,1.40807 -1.258729,3.18193 -1.5,5.125 l -0.03125,0.0312 0,0.0312 c -0.157108,2.33042 0.942442,5.99389 2,9.31249 1.057558,3.3186 2.125,6.1563 2.125,6.1563 l 0.03125,0 c 0.350431,1.0402 0.909167,1.9069 1.75,2.4687 0.843514,0.5636 1.905539,0.7873 3.0625,0.75 0.02171,-7e-4 0.04071,9e-4 0.0625,0 l 37,0 c 0.01109,6e-4 0.02018,-5e-4 0.03125,0 1.036762,0.05 1.965518,-0.2011 2.6875,-0.75 0.703507,-0.5349 1.160616,-1.3189 1.375,-2.1875 0.0056,-0.023 0.02594,-0.04 0.03125,-0.062 9.1e-5,-3e-4 -1.3e-4,-0.031 0,-0.031 0.02942,-0.086 1.017837,-2.988 2,-6.4687 0.498247,-1.7657 0.971578,-3.6641 1.3125,-5.375 0.340922,-1.71085 0.562357,-3.18881 0.4375,-4.37499 l 0,-0.0312 c -0.152831,-1.21101 -0.528687,-2.80964 -1.375,-4.21875 -0.841703,-1.40143 -2.287412,-2.64821 -4.28125,-2.71875 -0.01092,-3.9e-4 -0.0203,3.2e-4 -0.03125,0 l -1.03125,-0.0312 z m 0.96875,2.03125 c 1.251922,0.0361 2.028763,0.70524 2.65625,1.75 0.622334,1.03619 0.995607,2.40381 1.125,3.40625 0.0011,0.008 -0.001,0.023 0,0.0312 0.07144,0.72537 -0.08429,2.16555 -0.40625,3.78125 -0.32459,1.62894 -0.823097,3.48444 -1.3125,5.21874 -0.978806,3.4688 -2,6.4688 -2,6.4688 l 0,0.031 -0.03125,0.063 c -0.126756,0.5621 -0.358438,0.8985 -0.65625,1.125 -0.297812,0.2264 -0.709754,0.3812 -1.40625,0.3437 l -0.03125,0 -0.03125,0 -37.09375,0 -0.03125,0 c -0.902094,0.036 -1.483766,-0.124 -1.90625,-0.4063 -0.422484,-0.2822 -0.748045,-0.7247 -1,-1.5 l 0,-0.031 -0.03125,0 c 0,0 -1.056533,-2.8078 -2.09375,-6.0625 -1.028391,-3.2271 -1.984805,-7.03285 -1.90625,-8.50004 0.0014,-0.0112 -0.0014,-0.02 0,-0.0312 3.75e-4,-0.006 -4.13e-4,-0.0251 0,-0.0312 0.228808,-1.80837 0.588547,-3.30233 1.1875,-4.21875 0.606361,-0.92775 1.348623,-1.40625 2.96875,-1.40625 l 41.34375,0 0.0625,0 0.09375,0 c 0.179877,-0.0236 0.345856,-0.0383 0.5,-0.0312 z m -3.59375,4.625 c -1.543456,0 -2.78125,1.28999 -2.78125,2.8125 0,1.52251 1.258791,2.78124 2.78125,2.78124 1.522526,0 2.8125,-1.23774 2.8125,-2.78124 0,-1.54355 -1.269044,-2.8125 -2.8125,-2.8125 z m -35.21875,0.125 c -1.5435,0 -2.8125,1.26909 -2.8125,2.8125 0,1.54341 1.289994,2.78124 2.8125,2.78124 1.522619,0 2.78125,-1.25885 2.78125,-2.78124 0,-1.52251 -1.23775,-2.8125 -2.78125,-2.8125 z m 8.8125,0 c -1.543544,0 -2.8125,1.26902 -2.8125,2.8125 0,1.54348 1.289948,2.78124 2.8125,2.78124 1.522526,0 2.78125,-1.25878 2.78125,-2.78124 0,-1.52244 -1.23775,-2.8125 -2.78125,-2.8125 z m 8.8125,0 c -1.5435,0 -2.8125,1.26909 -2.8125,2.8125 0,1.54341 1.289994,2.78124 2.8125,2.78124 1.522619,0 2.78125,-1.25885 2.78125,-2.78124 0,-1.52251 -1.23775,-2.8125 -2.78125,-2.8125 z m 8.78125,0 c -1.543456,0 -2.78125,1.28993 -2.78125,2.8125 0,1.52257 1.258791,2.78124 2.78125,2.78124 1.522526,0 2.8125,-1.23774 2.8125,-2.78124 0,-1.54355 -1.269044,-2.8125 -2.8125,-2.8125 z m -43.8125,0.625 c -3.647062,0 -6.6250001,2.97808 -6.6250001,6.62504 0,3.6472 2.9780021,6.625 6.6250001,6.625 3.646998,0 6.625,-2.9778 6.625,-6.625 0,-3.64696 -2.977938,-6.62504 -6.625,-6.62504 z m 71,0 c -3.647062,0 -6.625,2.97808 -6.625,6.62504 0,3.6472 2.978002,6.625 6.625,6.625 3.646998,0 6.625,-2.9778 6.625,-6.625 0,-3.64696 -2.977938,-6.62504 -6.625,-6.62504 z m -18.375,1.25 c 0.439744,0 0.8125,0.37265 0.8125,0.8125 0,0.4397 -0.351826,0.78125 -0.8125,0.78125 -0.460741,0 -0.78125,-0.32036 -0.78125,-0.78125 0,-0.46089 0.341506,-0.8125 0.78125,-0.8125 z m -35.21875,0.125 c 0.4399,0 0.78125,0.35161 0.78125,0.8125 0,0.46081 -0.320269,0.78125 -0.78125,0.78125 -0.460894,0 -0.8125,-0.34126 -0.8125,-0.78125 0,-0.43999 0.3726,-0.8125 0.8125,-0.8125 z m 8.8125,0 c 0.4399,0 0.78125,0.35154 0.78125,0.8125 0,0.46074 -0.320576,0.78125 -0.78125,0.78125 -0.461048,0 -0.8125,-0.34133 -0.8125,-0.78125 0,-0.43992 0.372444,-0.8125 0.8125,-0.8125 z m 8.8125,0 c 0.4399,0 0.78125,0.35161 0.78125,0.8125 0,0.46081 -0.320269,0.78125 -0.78125,0.78125 -0.460894,0 -0.8125,-0.34126 -0.8125,-0.78125 0,-0.43999 0.3726,-0.8125 0.8125,-0.8125 z m 8.78125,0 c 0.439744,0 0.8125,0.37265 0.8125,0.8125 0,0.4397 -0.351826,0.78125 -0.8125,0.78125 -0.460741,0 -0.78125,-0.32042 -0.78125,-0.78125 0,-0.46083 0.341506,-0.8125 0.78125,-0.8125 z m -43.8125,0.625 c 2.566138,0 4.625,2.05904 4.625,4.62504 0,2.5663 -2.058798,4.625 -4.625,4.625 -2.566202,0 -4.625,-2.0587 -4.625,-4.625 0,-2.566 2.058862,-4.62504 4.625,-4.62504 z m 71,0 c 2.566138,0 4.625,2.05904 4.625,4.62504 0,2.5663 -2.058798,4.625 -4.625,4.625 -2.566202,0 -4.625,-2.0587 -4.625,-4.625 0,-2.566 2.058862,-4.62504 4.625,-4.62504 z m -48.65625,4.62504 c -1.543524,0 -2.78125,1.29 -2.78125,2.8124 0,1.5226 1.258791,2.7813 2.78125,2.7813 1.522573,0 2.8125,-1.2379 2.8125,-2.7813 0,-1.5434 -1.26902,-2.8124 -2.8125,-2.8124 z m 8.8125,0 c -1.54348,0 -2.78125,1.29 -2.78125,2.8124 0,1.5225 1.258744,2.7813 2.78125,2.7813 1.522619,0 2.8125,-1.2378 2.8125,-2.7813 0,-1.5434 -1.268976,-2.8124 -2.8125,-2.8124 z m 8.8125,0 c -1.543524,0 -2.78125,1.29 -2.78125,2.8124 0,1.5226 1.258791,2.7813 2.78125,2.7813 1.522573,0 2.78125,-1.2589 2.78125,-2.7813 0,-1.5224 -1.23777,-2.8124 -2.78125,-2.8124 z m 8.8125,0 c -1.54348,0 -2.8125,1.269 -2.8125,2.8124 0,1.5435 1.289994,2.7813 2.8125,2.7813 1.522619,0 2.78125,-1.2589 2.78125,-2.7813 0,-1.5225 -1.237815,-2.8124 -2.78125,-2.8124 z m -26.4375,2 c 0.43992,0 0.8125,0.3725 0.8125,0.8124 0,0.4399 -0.351673,0.7813 -0.8125,0.7813 -0.460741,0 -0.78125,-0.3204 -0.78125,-0.7813 0,-0.4609 0.341174,-0.8124 0.78125,-0.8124 z m 8.8125,0 c 0.440076,0 0.8125,0.3725 0.8125,0.8124 0,0.4398 -0.351519,0.7813 -0.8125,0.7813 -0.460894,0 -0.78125,-0.3203 -0.78125,-0.7813 0,-0.4609 0.34133,-0.8124 0.78125,-0.8124 z m 8.8125,0 c 0.43992,0 0.78125,0.3515 0.78125,0.8124 0,0.4609 -0.320423,0.7813 -0.78125,0.7813 -0.460741,0 -0.78125,-0.3204 -0.78125,-0.7813 0,-0.4609 0.341174,-0.8124 0.78125,-0.8124 z m 8.8125,0 c 0.439765,0 0.78125,0.3516 0.78125,0.8124 0,0.4609 -0.320269,0.7813 -0.78125,0.7813 -0.460894,0 -0.8125,-0.3413 -0.8125,-0.7813 0,-0.4399 0.37258,-0.8124 0.8125,-0.8124 z" fill="#000000" fill-opacity="1" stroke="none" marker="none" visibility="visible" display="inline" overflow="visible"></path></g></svg>